<?xml version="1.0" standalone="no"?>
<!DOCTYPE svg PUBLIC "-//W3C//DTD SVG 20010904//EN"
 "http://www.w3.org/TR/2001/REC-SVG-20010904/DTD/svg10.dtd">
<svg version="1.0" xmlns="http://www.w3.org/2000/svg"
 width="288.000000pt" height="288.000000pt" viewBox="0 0 288.000000 288.000000"
 preserveAspectRatio="xMidYMid meet">
<metadata>
Created by potrace 1.11, written by Peter Selinger 2001-2013
</metadata>
<g transform="translate(0.000000,288.000000) scale(0.100000,-0.100000)"
fill="#000000" stroke="none">
<path d="M1869 2677 c-27 -21 -133 -221 -401 -756 -242 -482 -217 -436 -291
-544 -92 -135 -178 -203 -268 -210 -102 -9 -162 64 -162 196 0 73 14 159 38
232 25 81 26 94 7 104 -39 21 -130 -48 -168 -127 -24 -50 -41 -146 -37 -207 5
-66 54 -166 101 -205 76 -63 230 -93 344 -69 81 18 184 76 252 144 112 112
173 211 380 620 237 470 278 570 279 685 1 54 -4 86 -17 113 -19 39 -31 44
-57 24z"/>
<path d="M2093 1961 c-29 -43 -76 -120 -105 -170 -29 -51 -60 -104 -69 -119
-27 -46 -70 -124 -112 -202 -22 -41 -51 -95 -65 -120 -54 -95 -241 -479 -276
-566 -20 -50 -36 -108 -36 -129 0 -46 33 -114 81 -168 l35 -40 165 37 c251 57
277 62 389 71 36 4 71 8 79 11 20 7 5 54 -31 90 -40 43 -98 58 -195 51 -71 -5
-307 -48 -347 -63 -15 -6 -15 -3 0 32 42 101 332 653 414 789 67 111 149 272
169 332 24 73 27 159 7 208 -23 54 -44 45 -103 -44z"/>
</g>
</svg>
